# xmcd
#
# Track frame offsets:
#	150
#	17487
#	38193
#	56552
#	72494
#	89794
#	105329
#	130547
#	151830
#	163741
#	182644
#	192675
#
# Disc length: 2900
#
# Revision: 1
# Processed by: cddbd v1.5.1PL0 Copyright (c) Steve Scherf et al.
# Submitted via: dBpowerAMP V4.0
# Normalized: r0:TRMNUM
#
DISCID=9e0b520c
DTITLE=Doctor Desastre - Vaya una forma de empezar el sábado
DYEAR=1900
DGENRE=2004
TTITLE0=Ni que sí, ni que no
TTITLE1=Canción de luna
TTITLE2=El rock de los desheredados
TTITLE3=Extraña enfermedad
TTITLE4=Mañana de resaca
TTITLE5=La ley de Murphy
TTITLE6=Con extra de sal
TTITLE7=No se me ocurre nada
TTITLE8=Habla
TTITLE9=Puedo ser
TTITLE10=Cuando pase el rocanrol (directo)
TTITLE11=Felicidad (directo)
EXTD=
EXTT0=
EXTT1=
EXTT2=
EXTT3=
EXTT4=
EXTT5=
EXTT6=
EXTT7=
EXTT8=
EXTT9=
EXTT10=
EXTT11=
PLAYORDER=
